<svg width="10" height="14" viewBox="0 0 10 14" fill="none" xmlns="http://www.w3.org/2000/svg">
<path d="M7.61801 9.26C7.25701 9.483 7.00001 9.858 7.00001 10.282C7.00001 10.508 6.85801 10.712 6.64001 10.772C6.10649 10.9234 5.55458 11.0001 5.00001 11C4.43101 11 3.88001 10.92 3.36001 10.773C3.25468 10.7416 3.16249 10.6766 3.09749 10.588C3.0325 10.4994 2.99827 10.3919 3.00001 10.282C3.00001 9.858 2.74301 9.483 2.38201 9.261C1.45419 8.69093 0.737836 7.83353 0.341834 6.81912C-0.0541682 5.80471 -0.10817 4.68875 0.188035 3.64084C0.48424 2.59294 1.11446 1.67038 1.9829 1.01338C2.85135 0.356385 3.91055 0.000871658 4.99951 0.000871658C6.08848 0.000871658 7.14767 0.356385 8.01612 1.01338C8.88457 1.67038 9.51479 2.59294 9.81099 3.64084C10.1072 4.68875 10.0532 5.80471 9.65719 6.81912C9.26119 7.83353 8.54484 8.69093 7.61701 9.261L7.61801 9.26ZM3.86701 12.415C3.76934 12.3996 3.66959 12.4036 3.57348 12.4269C3.47737 12.4501 3.38682 12.4922 3.30702 12.5506C3.22722 12.6089 3.15976 12.6825 3.10851 12.7671C3.05726 12.8517 3.02325 12.9455 3.00841 13.0433C2.99358 13.1411 2.99823 13.2408 3.02208 13.3368C3.04594 13.4327 3.08854 13.523 3.14743 13.6024C3.20631 13.6819 3.28032 13.7489 3.36521 13.7996C3.45009 13.8503 3.54416 13.8838 3.64201 13.898C4.54221 14.0344 5.45782 14.0344 6.35801 13.898C6.45587 13.8838 6.54994 13.8503 6.63482 13.7996C6.7197 13.7489 6.79371 13.6819 6.8526 13.6024C6.91149 13.523 6.95408 13.4327 6.97794 13.3368C7.0018 13.2408 7.00644 13.1411 6.99161 13.0433C6.97678 12.9455 6.94276 12.8517 6.89151 12.7671C6.84027 12.6825 6.7728 12.6089 6.69301 12.5506C6.61321 12.4922 6.52265 12.4501 6.42655 12.4269C6.33044 12.4036 6.23068 12.3996 6.13301 12.415C5.38197 12.5288 4.61806 12.5288 3.86701 12.415Z" fill="black" style="fill:black;fill-opacity:1;"/>
</svg>
