<svg width="14" height="14" viewBox="0 0 14 14" fill="none" xmlns="http://www.w3.org/2000/svg">
<path fill-rule="evenodd" clip-rule="evenodd" d="M1 7C1 5.4087 1.63214 3.88258 2.75736 2.75736C3.88258 1.63214 5.4087 1 7 1C8.5913 1 10.1174 1.63214 11.2426 2.75736C12.3679 3.88258 13 5.4087 13 7C13 8.5913 12.3679 10.1174 11.2426 11.2426C10.1174 12.3679 8.5913 13 7 13C5.4087 13 3.88258 12.3679 2.75736 11.2426C1.63214 10.1174 1 8.5913 1 7ZM7.64286 3.35714C7.64286 3.18665 7.57513 3.02313 7.45457 2.90257C7.33401 2.78202 7.1705 2.71429 7 2.71429C6.8295 2.71429 6.66599 2.78202 6.54543 2.90257C6.42487 3.02313 6.35714 3.18665 6.35714 3.35714V7C6.35714 7.35486 6.64514 7.64286 7 7.64286H9.78571C9.95621 7.64286 10.1197 7.57513 10.2403 7.45457C10.3608 7.33401 10.4286 7.1705 10.4286 7C10.4286 6.8295 10.3608 6.66599 10.2403 6.54543C10.1197 6.42487 9.95621 6.35714 9.78571 6.35714H7.64286V3.35714Z" fill="black" style="fill:black;fill-opacity:1;"/>
</svg>
