<svg width="16" height="14" viewBox="0 0 16 14" fill="none" xmlns="http://www.w3.org/2000/svg">
<path fill-rule="evenodd" clip-rule="evenodd" d="M2 7C2 5.4087 2.63214 3.88258 3.75736 2.75736C4.88258 1.63214 6.4087 1 8 1C9.5913 1 11.1174 1.63214 12.2426 2.75736C13.3679 3.88258 14 5.4087 14 7C14 8.5913 13.3679 10.1174 12.2426 11.2426C11.1174 12.3679 9.5913 13 8 13C6.4087 13 4.88258 12.3679 3.75736 11.2426C2.63214 10.1174 2 8.5913 2 7ZM8.64286 3.35714C8.64286 3.18665 8.57513 3.02313 8.45457 2.90257C8.33401 2.78202 8.1705 2.71429 8 2.71429C7.8295 2.71429 7.66599 2.78202 7.54543 2.90257C7.42487 3.02313 7.35714 3.18665 7.35714 3.35714V7C7.35714 7.35486 7.64514 7.64286 8 7.64286H10.7857C10.9562 7.64286 11.1197 7.57513 11.2403 7.45457C11.3608 7.33401 11.4286 7.1705 11.4286 7C11.4286 6.8295 11.3608 6.66599 11.2403 6.54543C11.1197 6.42487 10.9562 6.35714 10.7857 6.35714H8.64286V3.35714Z" fill="black" style="fill:black;fill-opacity:1;"/>
</svg>
