<svg width="19" height="19" viewBox="0 0 19 19" fill="none" xmlns="http://www.w3.org/2000/svg">
<path d="M18.37 9.5C18.37 14.3988 14.3988 18.37 9.5 18.37M18.37 9.5C18.37 4.60123 14.3988 0.629997 9.5 0.629997M18.37 9.5H0.630005M9.5 18.37C4.60124 18.37 0.630005 14.3988 0.630005 9.5M9.5 18.37C7.2224 15.9785 5.952 12.8025 5.952 9.5C5.952 6.19747 7.2224 3.02149 9.5 0.629997M9.5 18.37C11.7776 15.9785 13.048 12.8025 13.048 9.5C13.048 6.19747 11.7776 3.02149 9.5 0.629997M0.630005 9.5C0.630005 4.60123 4.60124 0.629997 9.5 0.629997" stroke="black" style="stroke:black;stroke-opacity:1;" stroke-width="1.25" stroke-linecap="round" stroke-linejoin="round" vector-effect="non-scaling-stroke" />
</svg>
