<svg width="14" height="14" viewBox="0 0 14 14" fill="none" xmlns="http://www.w3.org/2000/svg">
<path d="M13.4 7C13.4 10.5346 10.5346 13.4 7.00001 13.4M13.4 7C13.4 3.46538 10.5346 0.599998 7.00001 0.599998M13.4 7H0.600006M7.00001 13.4C3.46538 13.4 0.600006 10.5346 0.600006 7M7.00001 13.4C5.35664 11.6745 4.44001 9.38288 4.44001 7C4.44001 4.61711 5.35664 2.32554 7.00001 0.599998M7.00001 13.4C8.64338 11.6745 9.56001 9.38288 9.56001 7C9.56001 4.61711 8.64338 2.32554 7.00001 0.599998M0.600006 7C0.600006 3.46538 3.46538 0.599998 7.00001 0.599998" stroke="black" style="stroke:black;stroke-opacity:1;" stroke-width="1.2" stroke-linecap="round" stroke-linejoin="round"/>
</svg>
