<svg width="20" height="20" viewBox="0 0 20 20" fill="none" xmlns="http://www.w3.org/2000/svg">
<path d="M7.21967 14.2197C6.92678 14.5126 6.92678 14.9874 7.21967 15.2803C7.51256 15.5732 7.98744 15.5732 8.28033 15.2803L7.21967 14.2197ZM12.75 9.75L13.2803 10.2803C13.5732 9.98744 13.5732 9.51256 13.2803 9.21967L12.75 9.75ZM8.28033 4.21967C7.98744 3.92678 7.51256 3.92678 7.21967 4.21967C6.92678 4.51256 6.92678 4.98744 7.21967 5.28033L8.28033 4.21967ZM0.75 9C0.335786 9 0 9.33579 0 9.75C0 10.1642 0.335786 10.5 0.75 10.5V9ZM12.75 0C12.3358 0 12 0.335786 12 0.75C12 1.16421 12.3358 1.5 12.75 1.5V0ZM13.15 18.75L13.15 19.5L13.15 19.5L13.15 18.75ZM12.75 18C12.3358 18 12 18.3358 12 18.75C12 19.1642 12.3358 19.5 12.75 19.5V18ZM17.9299 17.9299L17.3996 17.3996L17.3996 17.3996L17.9299 17.9299ZM17.9299 1.5701L17.3996 2.10043L17.3996 2.10043L17.9299 1.5701ZM7.75 14.75L8.28033 15.2803L13.2803 10.2803L12.75 9.75L12.2197 9.21967L7.21967 14.2197L7.75 14.75ZM12.75 9.75L13.2803 9.21967L8.28033 4.21967L7.75 4.75L7.21967 5.28033L12.2197 10.2803L12.75 9.75ZM12.75 9.75V9H0.75V9.75V10.5H12.75V9.75ZM12.75 0.75V1.5H13.15V0.75V0H12.75V0.75ZM18.75 6.35H18V13.15H18.75H19.5V6.35H18.75ZM13.15 18.75V18H12.75V18.75V19.5H13.15V18.75ZM18.75 13.15H18C18 14.4911 17.9984 15.4215 17.9042 16.1224C17.8128 16.8017 17.647 17.1521 17.3996 17.3996L17.9299 17.9299L18.4602 18.4602C19.0329 17.8876 19.2771 17.1679 19.3908 16.3223C19.5016 15.4982 19.5 14.4487 19.5 13.15H18.75ZM13.15 18.75L13.15 19.5C14.4487 19.5 15.4982 19.5016 16.3223 19.3908C17.1679 19.2771 17.8876 19.0329 18.4602 18.4602L17.9299 17.9299L17.3996 17.3996C17.1521 17.647 16.8017 17.8128 16.1224 17.9042C15.4215 17.9984 14.4911 18 13.15 18L13.15 18.75ZM13.15 0.75V1.5C14.4911 1.5 15.4215 1.50159 16.1224 1.59582C16.8017 1.68716 17.1521 1.85296 17.3996 2.10043L17.9299 1.5701L18.4602 1.03977C17.8876 0.467144 17.1679 0.222895 16.3223 0.109201C15.4982 -0.0015928 14.4487 0 13.15 0V0.75ZM18.75 6.35H19.5C19.5 5.05127 19.5016 4.00177 19.3908 3.1777C19.2771 2.33206 19.0329 1.6124 18.4602 1.03977L17.9299 1.5701L17.3996 2.10043C17.647 2.34791 17.8128 2.69826 17.9042 3.37758C17.9984 4.07846 18 5.00887 18 6.35H18.75Z" fill="black" style="fill:black;fill-opacity:1;"/>
</svg>
