<svg width="14" height="14" viewBox="0 0 14 14" fill="none" xmlns="http://www.w3.org/2000/svg">
<path d="M3.62775 0.127751C3.66845 0.0871491 3.71676 0.0549683 3.76991 0.033048C3.82306 0.0111278 3.88001 -0.000101981 3.9375 6.97807e-07H10.0625C10.1785 6.97807e-07 10.2898 0.0460943 10.3719 0.128141C10.4539 0.210189 10.5 0.321468 10.5 0.437501C10.5 1.0325 10.2007 1.46475 9.93475 1.73163C9.8245 1.841 9.716 1.92763 9.625 1.99238V5.8695L9.69325 5.9115C9.87087 6.02263 10.1098 6.18625 10.3504 6.39713C10.815 6.80313 11.375 7.46113 11.375 8.3125C11.375 8.42853 11.3289 8.53981 11.2469 8.62186C11.1648 8.70391 11.0535 8.75 10.9375 8.75H7.4375V12.6875C7.4375 12.929 7.2415 14 7 14C6.7585 14 6.5625 12.929 6.5625 12.6875V8.75H3.0625C2.94647 8.75 2.83519 8.70391 2.75314 8.62186C2.67109 8.53981 2.625 8.42853 2.625 8.3125C2.625 7.46113 3.185 6.80313 3.64875 6.39713C3.87533 6.20084 4.1183 6.02432 4.375 5.8695V1.99238C4.26519 1.91356 4.16163 1.82639 4.06525 1.73163C3.79925 1.46475 3.5 1.03163 3.5 0.437501C3.4999 0.380009 3.51113 0.323061 3.53305 0.269911C3.55497 0.216762 3.58715 0.168455 3.62775 0.127751Z" fill="black" style="fill:black;fill-opacity:1;"/>
</svg>
