<svg width="20" height="20" viewBox="0 0 20 20" fill="none" xmlns="http://www.w3.org/2000/svg">
<path d="M3.32707 1.5263C3.21501 1.49295 3.09623 1.49129 2.98333 1.52148C2.87042 1.55166 2.76759 1.61258 2.68575 1.69777C2.6039 1.78295 2.54608 1.88924 2.51843 2.00535C2.49077 2.12146 2.4943 2.24307 2.52865 2.35729L4.62558 9.33816H11.9683C12.1398 9.33816 12.3043 9.40794 12.4255 9.53215C12.5468 9.65636 12.6149 9.82483 12.6149 10.0005C12.6149 10.1761 12.5468 10.3446 12.4255 10.4688C12.3043 10.593 12.1398 10.6628 11.9683 10.6628H4.62558L2.52865 17.6437C2.49451 17.7578 2.49113 17.8793 2.51887 17.9953C2.54662 18.1113 2.60446 18.2174 2.68628 18.3025C2.76809 18.3875 2.87084 18.4484 2.98364 18.4785C3.09644 18.5087 3.2151 18.507 3.32707 18.4738C9.03064 16.775 14.4092 14.0913 19.2308 10.5383C19.3141 10.477 19.382 10.3962 19.4288 10.3027C19.4756 10.2092 19.5 10.1056 19.5 10.0005C19.5 9.89539 19.4756 9.79181 19.4288 9.6983C19.382 9.60478 19.3141 9.52402 19.2308 9.46268C14.4092 5.90936 9.03071 3.22533 3.32707 1.5263Z" fill="black" style="fill:black;fill-opacity:1;"/>
</svg>
