<svg width="18" height="18" viewBox="0 0 18 18" fill="none" xmlns="http://www.w3.org/2000/svg">
<g clip-path="url(#clip0_170_1635)">
<path fill-rule="evenodd" clip-rule="evenodd" d="M6.84 0.804C6.88529 0.57739 7.00767 0.373461 7.18634 0.226887C7.365 0.0803122 7.58891 0.000139564 7.82 0H10.18C10.4111 0.000139564 10.635 0.0803122 10.8137 0.226887C10.9923 0.373461 11.1147 0.57739 11.16 0.804L11.491 2.456C12.1895 2.72219 12.8407 3.09863 13.42 3.571L15.018 3.031C15.2369 2.95702 15.4747 2.96112 15.6909 3.04261C15.9071 3.1241 16.0884 3.27795 16.204 3.478L17.384 5.522C17.4997 5.72209 17.5424 5.95607 17.5051 6.18413C17.4677 6.4122 17.3525 6.62029 17.179 6.773L15.912 7.886C16.0301 8.62397 16.0301 9.37603 15.912 10.114L17.179 11.227C17.3524 11.3795 17.4676 11.5874 17.5052 11.8152C17.5427 12.0431 17.5003 12.2769 17.385 12.477L16.205 14.522C16.0893 14.7223 15.9079 14.8763 15.6914 14.9578C15.475 15.0393 15.237 15.0432 15.018 14.969L13.42 14.429C12.8407 14.9014 12.1895 15.2778 11.491 15.544L11.161 17.196C11.1157 17.4226 10.9933 17.6265 10.8147 17.7731C10.636 17.9197 10.4121 17.9999 10.181 18H7.82C7.58891 17.9999 7.365 17.9197 7.18634 17.7731C7.00767 17.6265 6.88529 17.4226 6.84 17.196L6.509 15.544C5.81054 15.2778 5.15928 14.9014 4.58 14.429L2.982 14.969C2.76311 15.043 2.52535 15.0389 2.30914 14.9574C2.09293 14.8759 1.91161 14.7221 1.796 14.522L0.615999 12.478C0.500347 12.2779 0.45757 12.0439 0.494943 11.8159C0.532316 11.5878 0.647533 11.3797 0.820999 11.227L2.088 10.113C1.97001 9.37535 1.97001 8.62364 2.088 7.886L0.820999 6.773C0.647613 6.62047 0.53236 6.41264 0.49481 6.18478C0.457259 5.95693 0.499726 5.7231 0.614999 5.523L1.795 3.478C1.91065 3.27773 2.09214 3.12373 2.30856 3.04223C2.52499 2.96073 2.76298 2.95676 2.982 3.031L4.58 3.571C5.15957 3.09852 5.81118 2.72207 6.51 2.456L6.84 0.804ZM9 12C9.79565 12 10.5587 11.6839 11.1213 11.1213C11.6839 10.5587 12 9.79565 12 9C12 8.20435 11.6839 7.44129 11.1213 6.87868C10.5587 6.31607 9.79565 6 9 6C8.20435 6 7.44129 6.31607 6.87868 6.87868C6.31607 7.44129 6 8.20435 6 9C6 9.79565 6.31607 10.5587 6.87868 11.1213C7.44129 11.6839 8.20435 12 9 12Z" fill="black" style="fill:black;fill-opacity:1;"/>
</g>
<defs>
<clipPath id="clip0_170_1635">
<rect width="18" height="18" fill="white" style="fill:white;fill-opacity:1;"/>
</clipPath>
</defs>
</svg>
