<svg width="14" height="14" viewBox="0 0 14 14" fill="none" xmlns="http://www.w3.org/2000/svg">
<path d="M0 7.84972C0 8.84972 0.738 9.70072 1.734 9.79672L2 9.82072V12.2497C2.00013 12.398 2.04419 12.5428 2.12661 12.6661C2.20903 12.7893 2.32611 12.8853 2.46308 12.942C2.60004 12.9987 2.75074 13.0136 2.89614 12.9847C3.04154 12.9558 3.17511 12.8845 3.28 12.7797L5.1 10.9597C4.70818 10.3816 4.49914 9.6991 4.5 9.00072V8.00072C4.5 7.07246 4.86875 6.18222 5.52513 5.52585C6.1815 4.86947 7.07174 4.50072 8 4.50072H12V3.15172C12 2.15172 11.261 1.30072 10.266 1.20472C7.42855 0.931689 4.57145 0.931689 1.734 1.20472C0.738 1.30072 0 2.15172 0 3.15172V7.85072V7.84972Z" fill="black" style="fill:black;fill-opacity:1;"/>
<path d="M6 8.00072C6 7.47029 6.21071 6.96158 6.58579 6.5865C6.96086 6.21143 7.46957 6.00072 8 6.00072H12C12.5304 6.00072 13.0391 6.21143 13.4142 6.5865C13.7893 6.96158 14 7.47029 14 8.00072V9.00072C14 9.53115 13.7893 10.0399 13.4142 10.4149C13.0391 10.79 12.5304 11.0007 12 11.0007H11.75V12.2507C11.7499 12.399 11.7058 12.5438 11.6234 12.6671C11.541 12.7903 11.4239 12.8863 11.2869 12.943C11.15 12.9997 10.9993 13.0146 10.8539 12.9857C10.7085 12.9568 10.5749 12.8855 10.47 12.7807L8.69 11.0007H8C7.46957 11.0007 6.96086 10.79 6.58579 10.4149C6.21071 10.0399 6 9.53115 6 9.00072V8.00072Z" fill="black" style="fill:black;fill-opacity:1;"/>
</svg>
