<svg width="19" height="19" viewBox="0 0 19 19" fill="none" xmlns="http://www.w3.org/2000/svg">
<path d="M18.37 4.36638H8.97214M8.97214 4.36638C8.97214 3.68562 8.70171 3.03274 8.22034 2.55137C7.73897 2.07 7.08609 1.79957 6.40533 1.79957C5.72457 1.79957 5.07169 2.07 4.59032 2.55137C4.10895 3.03274 3.83852 3.68562 3.83852 4.36638M8.97214 4.36638C8.97214 5.04714 8.70171 5.70002 8.22034 6.18139C7.73897 6.66276 7.08609 6.93319 6.40533 6.93319C5.72457 6.93319 5.07169 6.66276 4.59032 6.18139C4.10895 5.70002 3.83852 5.04714 3.83852 4.36638M3.83852 4.36638H0.630012M18.37 14.6336H15.1615M15.1615 14.6336C15.1615 13.9529 14.8911 13.3 14.4097 12.8186C13.9283 12.3372 13.2754 12.0668 12.5947 12.0668C11.9139 12.0668 11.261 12.3372 10.7797 12.8186C10.2983 13.3 10.0279 13.9529 10.0279 14.6336M15.1615 14.6336C15.1615 15.3144 14.8911 15.9673 14.4097 16.4486C13.9283 16.93 13.2754 17.2004 12.5947 17.2004C11.9139 17.2004 11.261 16.93 10.7797 16.4486C10.2983 15.9673 10.0279 15.3144 10.0279 14.6336M10.0279 14.6336H0.630005" stroke="black" style="stroke:black;stroke-opacity:1;" stroke-width="1.25" stroke-linecap="round" stroke-linejoin="round" vector-effect="non-scaling-stroke" />
</svg>
