<svg width="14" height="14" viewBox="0 0 14 14" fill="none" xmlns="http://www.w3.org/2000/svg">
<path d="M9.3388 3.15979L3.97827 8.65492C3.73926 8.89502 3.60499 9.22067 3.60499 9.56022C3.60499 9.89977 3.73926 10.2254 3.97827 10.4655C4.21727 10.7056 4.54143 10.8405 4.87944 10.8405C5.21745 10.8405 5.54161 10.7056 5.78061 10.4655L11.1411 4.97038C11.6191 4.49027 11.8876 3.83909 11.8876 3.16011C11.8876 2.48113 11.6191 1.82995 11.1411 1.34984C10.6632 0.869724 10.015 0.599998 9.33912 0.599998C8.66323 0.599998 8.01502 0.869724 7.53709 1.34984L2.19885 6.82257C1.83915 7.17809 1.55307 7.60163 1.35712 8.06876C1.16117 8.5359 1.05923 9.03738 1.05718 9.5443C1.05512 10.0512 1.15299 10.5535 1.34515 11.0222C1.53731 11.491 1.81994 11.9168 2.17675 12.2753C2.53356 12.6337 2.95749 12.9176 3.42408 13.1107C3.89067 13.3037 4.39069 13.402 4.89529 13.4C5.3999 13.3979 5.8991 13.2955 6.36411 13.0986C6.82912 12.9018 7.25073 12.6144 7.60462 12.2531L12.9429 6.78033" stroke="black" style="stroke:black;stroke-opacity:1;" stroke-width="1.1" stroke-linecap="round" stroke-linejoin="round"/>
</svg>
