<svg width="19" height="19" viewBox="0 0 19 19" fill="none" xmlns="http://www.w3.org/2000/svg">
<path d="M9.29878 6.26588L5.95428 10.1713C5.59948 10.5856 5.42766 11.1207 5.47663 11.6587C5.52559 12.1968 5.79134 12.6939 6.21539 13.0405C6.63945 13.3872 7.18708 13.555 7.73782 13.5072C8.28856 13.4594 8.79729 13.1997 9.1521 12.7854L13.8344 7.31782C14.544 6.4892 14.8876 5.4191 14.7897 4.34293C14.6918 3.26676 14.1603 2.27268 13.3122 1.57938C12.4641 0.886071 11.3688 0.550331 10.2673 0.646016C9.16583 0.741701 8.14837 1.26097 7.43876 2.0896L2.08757 8.33826C1.02315 9.5812 0.507695 11.1864 0.654598 12.8006C0.801501 14.4149 1.59873 15.906 2.8709 16.9459C4.14307 17.9859 5.78597 18.4895 7.43819 18.346C9.09041 18.2024 10.6166 17.4235 11.681 16.1806L18.37 8.36977" stroke="black" style="stroke:black;stroke-opacity:1;" stroke-width="1.25" stroke-linecap="round" stroke-linejoin="round" vector-effect="non-scaling-stroke" />
</svg>
