<svg width="256" height="256" viewBox="0 0 256 256" fill="none" xmlns="http://www.w3.org/2000/svg">
<rect width="256" height="256" rx="60" fill="#6A41FF" style="fill:#6A41FF;fill:color(display-p3 0.4163 0.2549 1.0000);fill-opacity:1;"/>
<rect x="3.5" y="3.5" width="249" height="249" rx="56.5" stroke="url(#paint0_linear_171_1642)" stroke-opacity="0.4" style="" stroke-width="7"/>
<path fill-rule="evenodd" clip-rule="evenodd" d="M92.4382 80.5672C94.5211 80.567 96.5379 81.298 98.1369 82.6326C99.7359 83.9673 100.816 85.821 101.188 87.8703L104.175 104.326C104.715 107.291 106.146 110.021 108.277 112.152C110.407 114.283 113.137 115.713 116.102 116.253L132.558 119.241C134.608 119.612 136.463 120.691 137.798 122.29C139.134 123.889 139.866 125.907 139.866 127.99C139.866 130.074 139.134 132.091 137.798 133.69C136.463 135.289 134.608 136.368 132.558 136.74L116.102 139.727C113.137 140.267 110.407 141.697 108.277 143.828C106.146 145.959 104.715 148.689 104.175 151.654L101.188 168.11C100.817 170.16 99.7372 172.015 98.1381 173.35C96.539 174.686 94.5217 175.417 92.4382 175.417C90.3548 175.417 88.3375 174.686 86.7384 173.35C85.1393 172.015 84.0599 170.16 83.6887 168.11L80.7011 151.654C80.1615 148.689 78.7309 145.959 76.6 143.828C74.469 141.697 71.7391 140.267 68.7742 139.727L52.3185 136.74C50.2683 136.368 48.4137 135.289 47.0781 133.69C45.7425 132.091 45.0109 130.074 45.0109 127.99C45.0109 125.907 45.7425 123.889 47.0781 122.29C48.4137 120.691 50.2683 119.612 52.3185 119.241L68.7742 116.253C71.7391 115.713 74.469 114.283 76.6 112.152C78.7309 110.021 80.1615 107.291 80.7011 104.326L83.6887 87.8703C84.0609 85.821 85.1406 83.9673 86.7396 82.6326C88.3386 81.298 90.3554 80.567 92.4382 80.5672ZM175.428 45C177.36 45.0004 179.24 45.6301 180.782 46.7937C182.324 47.9574 183.446 49.5918 183.976 51.4495L186.288 59.5351C187.687 64.4552 191.54 68.3083 196.46 69.7073L204.546 72.0192C206.402 72.551 208.035 73.6728 209.198 75.215C210.36 76.7572 210.989 78.6359 210.989 80.5672C210.989 82.4984 210.36 84.3771 209.198 85.9193C208.035 87.4615 206.402 88.5833 204.546 89.1151L196.46 91.427C194.041 92.1192 191.837 93.4164 190.057 95.1961C188.277 96.9758 186.98 99.1794 186.288 101.599L183.976 109.685C183.444 111.541 182.323 113.174 180.78 114.337C179.238 115.499 177.36 116.128 175.428 116.128C173.497 116.128 171.618 115.499 170.076 114.337C168.534 113.174 167.412 111.541 166.88 109.685L164.568 101.599C163.876 99.1794 162.579 96.9758 160.799 95.1961C159.02 93.4164 156.816 92.1192 154.396 91.427L146.311 89.1151C144.454 88.5833 142.821 87.4615 141.659 85.9193C140.496 84.3771 139.868 82.4984 139.868 80.5672C139.868 78.6359 140.496 76.7572 141.659 75.215C142.821 73.6728 144.454 72.551 146.311 72.0192L154.396 69.7073C156.816 69.0151 159.02 67.718 160.799 65.9383C162.579 64.1586 163.876 61.9549 164.568 59.5351L166.88 51.4495C167.411 49.5918 168.532 47.9574 170.075 46.7937C171.617 45.6301 173.496 45.0004 175.428 45ZM151.717 163.557C153.7 163.556 155.628 164.218 157.191 165.439C158.755 166.659 159.866 168.367 160.348 170.291C160.853 172.308 161.896 174.15 163.366 175.62C164.836 177.09 166.678 178.133 168.694 178.638C170.622 179.115 172.335 180.225 173.559 181.789C174.783 183.353 175.448 185.282 175.448 187.269C175.448 189.255 174.783 191.184 173.559 192.748C172.335 194.313 170.622 195.422 168.694 195.9C166.678 196.404 164.836 197.448 163.366 198.918C161.896 200.388 160.853 202.229 160.348 204.246C159.87 206.174 158.761 207.887 157.197 209.111C155.632 210.335 153.703 211 151.717 211C149.731 211 147.801 210.335 146.237 209.111C144.673 207.887 143.563 206.174 143.086 204.246C142.581 202.229 141.538 200.388 140.068 198.918C138.598 197.448 136.756 196.404 134.739 195.9C132.811 195.422 131.099 194.313 129.875 192.748C128.651 191.184 127.986 189.255 127.986 187.269C127.986 185.282 128.651 183.353 129.875 181.789C131.099 180.225 132.811 179.115 134.739 178.638C136.756 178.133 138.598 177.09 140.068 175.62C141.538 174.15 142.581 172.308 143.086 170.291C143.567 168.367 144.678 166.659 146.242 165.439C147.806 164.218 149.733 163.556 151.717 163.557Z" fill="url(#paint1_linear_171_1642)" style=""/>
<defs>
<linearGradient id="paint0_linear_171_1642" x1="128" y1="4.92308" x2="128" y2="251.077" gradientUnits="userSpaceOnUse">
<stop stop-color="#E8E4FF" stop-opacity="0.15" style="stop-color:#E8E4FF;stop-color:color(display-p3 0.9098 0.8941 1.0000);stop-opacity:0.15;"/>
<stop offset="1" stop-color="#071C1F" stop-opacity="0.15" style="stop-color:#071C1F;stop-color:color(display-p3 0.0275 0.1098 0.1216);stop-opacity:0.15;"/>
</linearGradient>
<linearGradient id="paint1_linear_171_1642" x1="45" y1="45" x2="245.11" y2="272.397" gradientUnits="userSpaceOnUse">
<stop stop-color="#E8E4FF" style="stop-color:#E8E4FF;stop-color:color(display-p3 0.9106 0.8948 1.0000);stop-opacity:1;"/>
<stop offset="1" stop-color="#7869D0" style="stop-color:#7869D0;stop-color:color(display-p3 0.4725 0.4130 0.8147);stop-opacity:1;"/>
</linearGradient>
</defs>
</svg>
